<svg xmlns="http://www.w3.org/2000/svg" viewBox="0 0 1000 1500" width="1000" height="1500">
  <path fill="#00F" fill-rule="evenodd" d="
    M 0400 0000
    L 0500 0150
    L 0600 0000
    Q 0830 0040 0900 0150
    L 1000 0350
    L 1000 1000
    Q 0870 1100 0855 1000
    L 0855 1000
    L 0855 0350
    L 0850 0350
    L 0850 1000
    L 0820 1500
    L 0180 1500
    L 0150 1000
    L 0150 0350
    L 0145 0350
    L 0145 1000
    Q 0130 1100 0000 1000
    L 0000 0350
    L 0100 0150
    Q 0170 0040 0400 0000
    Z

    M 0500 0150
    L 0420 0270
    L 0350 0500
    L 0300 0800
    L 0300 1500
    L 0295 1500
    L 0295 0800
    L 0345 0500
    L 0415 0270
    L 0495 0150
    Z
  "/>
</svg>
